<svg width="144" height="33" viewBox="0 0 144 33" fill="none" xmlns="http://www.w3.org/2000/svg">
<path fill-rule="evenodd" clip-rule="evenodd" d="M77.512 23.187C75.936 24.793 74.052 25.601 71.867 25.601C70.1 25.601 68.599 25.239 67.067 24.344V20.66C68.299 21.5 69.847 22.3 71.375 22.3C74.561 22.3 76.458 20.097 76.458 16.973C76.458 13.847 74.496 11.578 71.308 11.578C69.885 11.578 68.731 12.092 67.829 13.123C66.863 14.24 66.363 15.837 66.363 17.947V32.494H66.123C65.7045 32.4929 65.2903 32.4095 64.904 32.2483C64.5177 32.0872 64.167 31.8516 63.8718 31.5549C63.5766 31.2582 63.3427 30.9063 63.1835 30.5192C63.0244 30.1321 62.943 29.7175 62.944 29.299V17.402C62.944 12.353 66.015 8.27698 71.294 8.27698C73.899 8.27698 76.016 9.17198 77.621 10.972C79.13 12.653 79.877 14.783 79.877 17.347C79.877 19.627 79.088 21.578 77.512 23.187ZM5.00401 25.261C1.65901 25.261 1.00637e-05 22.975 1.00637e-05 19.783V7.66998C-0.00104183 7.25133 0.080377 6.83656 0.239618 6.44938C0.398859 6.06219 0.632803 5.71015 0.928094 5.41338C1.22338 5.1166 1.57424 4.88089 1.96062 4.71971C2.34701 4.55853 2.76136 4.47503 3.18001 4.47398H3.42001V8.61698H9.19701V11.917H3.42001V20.165C3.42001 21.567 4.04201 21.961 5.37601 21.961H9.19601V25.261H5.00401ZM24.862 23.158C23.172 24.785 21.142 25.601 18.784 25.601C16.447 25.601 14.428 24.784 12.739 23.158C11.044 21.524 10.199 19.445 10.199 16.939C10.199 12.051 13.913 8.27698 18.784 8.27698C21.121 8.27698 23.146 9.09998 24.845 10.739C26.551 12.382 27.403 14.455 27.403 16.939C27.403 19.445 26.557 21.524 24.863 23.158H24.862ZM40.85 12.622C40.348 13.467 39.959 14.074 39.685 14.44C39.384 14.838 39.086 15.156 38.791 15.376C41.167 16.148 42.052 17.802 42.052 20.267V25.261H41.812C40.9667 25.2589 40.1568 24.9211 39.5604 24.3219C38.9641 23.7228 38.6302 22.9113 38.632 22.066V20.606C38.632 19.01 37.92 17.927 36.238 17.927H33.13V25.261H32.89C32.0449 25.2586 31.2354 24.9207 30.6394 24.3215C30.0435 23.7224 29.7099 22.9111 29.712 22.066V4.34198C29.7108 3.9235 29.7921 3.50889 29.9512 3.12183C30.1103 2.73477 30.344 2.38284 30.6392 2.08615C30.9343 1.78945 31.2849 1.5538 31.6712 1.39265C32.0574 1.23151 32.4715 1.14803 32.89 1.14698L33.13 1.14698V14.593H34.141C35.251 14.593 35.981 14.211 36.401 13.489L39.272 8.61798L43.169 8.61398L40.848 12.622H40.85ZM58.5 23.158C56.81 24.785 54.78 25.601 52.422 25.601C50.085 25.601 48.067 24.784 46.377 23.158C44.682 21.524 43.837 19.445 43.837 16.939C43.837 12.051 47.551 8.27698 52.422 8.27698C54.76 8.27698 56.784 9.09998 58.484 10.739C60.189 12.382 61.041 14.455 61.041 16.939C61.041 19.445 60.194 21.524 58.5 23.158ZM56.032 13.066C55.09 12.075 53.893 11.578 52.422 11.578C49.275 11.578 47.392 13.883 47.392 16.939C47.392 19.953 49.32 22.301 52.422 22.301C55.525 22.301 57.452 19.953 57.452 16.939C57.452 15.339 56.974 14.055 56.032 13.066ZM22.395 13.066C21.453 12.075 20.255 11.578 18.785 11.578C15.638 11.578 13.755 13.883 13.755 16.939C13.755 19.953 15.683 22.301 18.785 22.301C21.887 22.301 23.815 19.953 23.815 16.939C23.815 15.339 23.337 14.055 22.395 13.066Z" fill="#03AC0E"/>
<path fill-rule="evenodd" clip-rule="evenodd" d="M133.717 22.7974C132.147 24.4904 130.127 25.3354 127.679 25.3354C125.094 25.3354 122.987 24.4394 121.384 22.6404C119.876 20.9384 119.128 18.8064 119.128 16.2664C119.128 11.7694 122.581 8.0114 127.126 8.0114C128.879 8.0114 130.401 8.3834 131.938 9.2314V12.9514C130.706 12.1114 129.158 11.3114 127.63 11.3114C124.444 11.3114 122.546 13.5154 122.546 16.6404C122.546 19.7224 124.554 22.0354 127.696 22.0354C129.118 22.0354 130.29 21.4994 131.226 20.4204C132.158 19.3474 132.642 17.7714 132.642 15.6554V4.0764C132.641 3.65788 132.722 3.24325 132.882 2.85618C133.041 2.46911 133.275 2.11719 133.57 1.82051C133.865 1.52382 134.216 1.28819 134.602 1.12706C134.988 0.965924 135.403 0.88245 135.821 0.881401L136.061 0.881401V16.1984C136.061 18.8954 135.285 21.1034 133.717 22.7974ZM143.372 6.3764C143.013 6.7804 142.499 6.9664 141.872 6.9664C140.698 6.9664 139.858 6.0964 139.858 4.9254C139.858 3.7274 140.682 2.9184 141.871 2.9184C143.016 2.9184 143.885 3.7714 143.885 4.9254C143.885 5.4954 143.719 5.9864 143.372 6.3764ZM113.938 14.6814C113.506 13.3384 112.964 12.6774 111.718 11.9784C108.755 10.3144 105.838 11.7314 104.482 14.6684L113.938 14.6814ZM111.329 25.2844C109.145 25.7514 107.002 25.3914 104.911 24.2174C102.871 23.0724 101.506 21.3704 100.821 19.1204C99.4371 14.5704 102.272 9.5004 106.833 8.2734C109.093 7.6644 111.261 7.9404 113.32 9.0964C116.74 11.0184 117.986 13.9904 117.769 17.8204L103.993 17.7914C104.196 19.3534 105.159 20.5754 106.513 21.3354C107.887 22.1064 109.149 22.2914 110.32 21.9254C111.62 21.5154 112.676 20.4484 113.534 19.4554L116.341 21.5114C115.196 23.5714 113.637 24.7914 111.329 25.2844ZM140.162 8.3514H143.581V24.9964H143.341C142.922 24.9954 142.508 24.9118 142.122 24.7507C141.735 24.5895 141.385 24.3537 141.089 24.0569C140.794 23.7602 140.56 23.4081 140.401 23.0209C140.242 22.6337 140.161 22.219 140.162 21.8004V8.3514Z" fill="#03AC0E"/>
<path fill-rule="evenodd" clip-rule="evenodd" d="M95.2197 15.8025C95.2197 14.4475 94.7097 13.3745 93.6857 12.5625C92.7627 11.8315 91.6097 11.4595 90.2067 11.4595C87.1117 11.4595 85.1247 13.8905 85.1247 16.8895C85.1247 19.7745 87.2317 22.1825 90.1747 22.1825C92.2217 22.1825 93.3157 20.9805 94.4837 19.4825V23.7995C93.8887 24.2475 93.2047 24.7365 92.5067 25.0225C91.7697 25.3325 90.8897 25.4825 89.8727 25.4825C84.9517 25.4825 81.7057 21.3855 81.7057 16.6515C81.7057 14.2205 82.4567 12.2105 83.9697 10.6435C85.5747 8.98248 87.6797 8.15848 90.2577 8.15848C95.1437 8.15848 98.6397 10.9785 98.6397 16.0735V25.1435H98.3997C97.981 25.1424 97.5666 25.0589 97.1803 24.8977C96.7939 24.7366 96.443 24.5009 96.1477 24.2041C95.8525 23.9073 95.6185 23.5553 95.4593 23.1681C95.3 22.7809 95.2186 22.3661 95.2197 21.9475V15.8025Z" fill="#03AC0E"/>
</svg>
